<svg width="80" height="80" viewBox="0 0 80 80" fill="none" xmlns="http://www.w3.org/2000/svg">
<g clip-path="url(#clip0_1029_707)">
<path d="M50.0709 55.7872H58.7053L44.9219 20.0153H35.3753L21.5919 55.7872H30.2269L32.4794 49.7278H45.5028L43.1453 43.0228H34.5703L40.1484 27.6309L50.0709 55.7872ZM78.5434 29.3025C78.4707 29.0394 78.3469 28.7933 78.1789 28.5782C78.0109 28.363 77.8021 28.1832 77.5645 28.0488C77.3269 27.9145 77.0652 27.8284 76.7942 27.7954C76.5233 27.7624 76.2485 27.7832 75.9856 27.8566C75.4549 28.0041 75.0044 28.3563 74.7332 28.8358C74.462 29.3153 74.3923 29.8829 74.5394 30.4137C75.4058 33.5355 75.845 36.7603 75.845 40C75.845 59.765 59.765 75.8444 40 75.8444C20.235 75.8444 4.15531 59.765 4.15531 40C4.15531 20.2347 20.235 4.155 40 4.155C48.3728 4.155 56.4744 7.12937 62.8684 12.4225C62.6122 13.0333 62.4806 13.6892 62.4816 14.3516C62.4816 17.1125 64.7197 19.3506 67.4806 19.3506C70.2416 19.3506 72.4797 17.1125 72.4797 14.3516C72.4797 11.5906 70.2416 9.3525 67.4806 9.3525C66.9491 9.3525 66.4375 9.43719 65.9569 9.59094C58.7569 3.455 49.5353 0 40 0C17.9441 0 0 17.9437 0 40C0 62.0559 17.9441 79.9997 40 79.9997C62.0559 79.9997 80 62.0559 80 40C80.0001 36.3847 79.5102 32.7861 78.5434 29.3025Z" fill="#7C1BD0"/>
</g>
<defs>
<clipPath id="clip0_1029_707">
<rect width="80" height="80" fill="white"/>
</clipPath>
</defs>
</svg>
