<svg width="134" height="80" viewBox="0 0 134 80" fill="none" xmlns="http://www.w3.org/2000/svg">
<g clip-path="url(#clip0_345_1011)">
<path d="M38.0618 28.8937C38.0618 30.553 38.1945 31.8804 38.5264 33.0087C38.8582 33.8052 39.3228 34.8671 39.9202 36.0618C40.1857 36.3273 40.252 36.7255 40.252 37.0574C40.252 37.522 39.9866 37.9202 39.3892 38.3848L36.6016 40.2432C36.2034 40.5087 35.8051 40.6415 35.4733 40.6415C35.0087 40.6415 34.6105 40.376 34.1459 39.9778C33.5485 39.314 33.0175 38.6503 32.5529 37.9202C32.1547 37.1901 31.6901 36.3273 31.2255 35.3317C27.7742 39.3804 23.46 41.4379 18.2167 41.4379C14.4998 41.4379 11.5795 40.376 9.38922 38.2521C7.26532 36.1282 6.137 33.2742 6.137 29.6901C6.137 26.0397 7.46444 23.053 10.1193 20.6636C12.8405 18.407 16.4246 17.2123 20.9379 17.2123C22.4644 17.2123 23.8582 17.345 25.6503 17.6105C27.1768 17.8096 28.9689 18.1415 30.6945 18.5397V15.3539C30.6945 11.9689 30.0308 9.77864 28.637 8.2521C27.1768 6.85829 24.8538 6.26094 21.4689 6.26094C19.8759 6.26094 18.283 6.46006 16.6901 6.79192C15.0308 7.19015 13.4379 7.65475 11.9113 8.31847C11.1813 8.58396 10.5839 8.78307 10.3848 8.84944C10.0529 8.98219 9.85382 8.98219 9.6547 8.98219C9.05736 8.98219 8.7255 8.58395 8.7255 7.65475V5.46448C8.7255 4.80077 8.79187 4.26979 9.05736 3.93794C9.25647 3.60608 9.6547 3.34059 10.252 3.14148C11.845 2.21227 13.637 1.54855 15.8273 1.01758C18.0804 0.428468 20.4012 0.13837 22.7299 0.154752C27.9733 0.154752 31.8228 1.34944 34.2786 3.73882C36.7344 6.1282 37.929 9.77864 37.929 14.6238V28.8937H38.0618ZM20.1414 35.6636C21.6016 35.6636 23.0618 35.3981 24.6547 34.8671C26.2476 34.3362 27.6414 33.3406 28.8361 32.0132C29.5662 31.1503 30.0972 30.2211 30.4954 29.1592C30.4954 28.0972 30.8273 26.8362 30.8273 25.3096V23.5176C29.4998 23.053 28.1724 23.053 26.7122 22.7211C25.3451 22.5718 23.9721 22.4832 22.5972 22.4556C19.6105 22.4556 17.4866 23.053 16.0264 24.2477C14.5662 25.4424 13.9025 27.1017 13.9025 29.2919C13.9025 31.4158 14.3671 33.0087 15.4954 34.0043C16.5574 35.1326 18.0839 35.6636 20.1414 35.6636ZM55.5839 40.376C54.9414 40.3952 54.3037 40.2585 53.7255 39.9778C53.5264 39.6459 53.1945 39.0486 52.929 38.2521L42.5751 4.13705C42.3096 3.14148 42.1768 2.67688 42.1768 2.34502C42.1768 1.61493 42.5087 1.2167 43.2388 1.2167H47.5529C48.4158 1.2167 49.0131 1.34944 49.2786 1.6813C49.6768 1.94679 49.9423 2.54413 50.2078 3.40696L57.5751 32.6105L64.4777 3.40696C64.6768 2.54413 64.9423 1.94679 65.3405 1.6813C65.6724 1.41581 66.2697 1.2167 66.9998 1.2167H70.6503C71.4467 1.2167 72.0441 1.34944 72.3759 1.6813C72.7078 1.94679 73.0397 2.54413 73.2388 3.40696L80.2742 33.0087L87.8405 3.40696C88.106 2.54413 88.4379 1.94679 88.7034 1.6813C89.1016 1.41581 89.6326 1.2167 90.429 1.2167H94.5441C95.2742 1.2167 95.6724 1.61493 95.6724 2.34502C95.6724 2.54413 95.606 2.80962 95.5396 3.14148C95.5396 3.14148 95.4069 3.67245 95.2742 4.13705L84.5883 38.2521C84.3228 39.1813 84.0574 39.6459 83.5928 39.9778C83.3273 40.2432 82.7299 40.4424 81.9998 40.4424H78.2166C77.3538 40.4424 76.9556 40.3096 76.4246 39.9778C75.9783 39.5046 75.6987 38.8987 75.6282 38.2521L68.7919 9.77864L61.9556 38.1857C61.7565 39.0486 61.491 39.6459 61.1591 39.9778C60.6111 40.2764 59.99 40.4144 59.3671 40.376H55.5839ZM112.332 41.5707C110.141 41.5707 107.686 41.3052 105.495 40.7742C103.305 40.2432 101.579 39.6459 100.451 39.0486C99.8747 38.7713 99.3907 38.3334 99.0574 37.7875C98.877 37.4154 98.7861 37.0063 98.7919 36.5928V34.3362C98.7919 33.407 99.1237 33.0087 99.7874 33.0087H100.584C100.849 33.0087 101.248 33.3406 101.712 33.5397C103.172 34.2034 104.832 34.7344 106.557 35.0663C108.349 35.3981 110.141 35.5972 111.801 35.5972C114.588 35.5972 116.779 35.1326 118.239 34.1371C119.765 33.0087 120.562 31.7477 120.562 29.9556C120.562 28.6946 120.097 27.699 119.367 26.8362C118.571 26.0397 117.044 25.2432 114.92 24.5795L108.482 22.5884C105.296 21.5264 102.907 20.0663 101.447 18.0751C100.022 16.232 99.2512 13.9668 99.2565 11.6371C99.2565 9.77865 99.6547 8.18573 100.451 6.79192C101.248 5.33174 102.31 4.13705 103.504 3.14148C104.964 2.1459 106.425 1.41581 108.217 0.884838C109.942 0.353865 111.801 0.0883789 113.792 0.0883789C114.721 0.0883789 115.717 0.154752 116.779 0.287495C117.708 0.420239 118.637 0.619352 119.566 0.752095C120.495 1.01758 121.292 1.2167 122.088 1.48218C122.885 1.74767 123.416 2.01316 123.947 2.27864C124.544 2.6105 125.009 2.94236 125.274 3.34059C125.54 3.73882 125.672 4.20342 125.672 4.80077V6.92466C125.672 7.85387 125.341 8.31847 124.677 8.31847C124.345 8.31847 123.748 8.11935 122.951 7.78749C120.495 6.65917 117.641 6.06183 114.522 6.06183C112 6.06183 110.141 6.46006 108.615 7.32289C107.287 8.11935 106.557 9.44678 106.557 11.2388C106.557 12.4999 107.022 13.5618 107.885 14.3583C108.748 15.2211 110.407 16.0176 112.73 16.814L119.035 18.8052C122.221 19.7344 124.478 21.1946 125.872 23.053C127.199 24.845 127.863 26.9025 127.863 29.2255C127.863 31.084 127.464 32.8096 126.734 34.3362C125.938 35.7963 124.876 37.1238 123.416 38.1857C122.155 39.314 120.495 40.1105 118.637 40.7078C116.779 41.3052 114.522 41.5707 112.332 41.5707ZM120.628 63.0751C106.093 73.7609 84.9866 79.4689 66.9998 79.4689C41.4467 79.4689 18.5485 70.0441 1.2255 54.4468C-0.168306 53.1857 1.09276 51.5264 2.75205 52.522C21.4689 63.3406 44.4998 69.9114 68.3936 69.9114C84.522 69.9114 102.243 66.5928 118.504 59.5574C120.96 58.5618 123.018 61.2831 120.628 63.0751ZM126.734 56.2388C124.81 53.7831 114.389 55.0441 109.677 55.5751C108.283 55.7742 108.084 54.5132 109.345 53.584C117.641 47.8096 131.314 49.6017 132.841 51.3937C134.433 53.3848 132.442 67.0574 124.677 73.5618C123.416 74.5574 122.287 74.0264 122.818 72.8317C124.61 68.3185 128.526 58.4955 126.734 56.2388Z" fill="#7C1BD0"/>
</g>
<defs>
<clipPath id="clip0_345_1011">
<rect width="133.805" height="80" fill="white" transform="translate(0.097168)"/>
</clipPath>
</defs>
</svg>
