<svg width="80" height="80" viewBox="0 0 80 80" fill="none" xmlns="http://www.w3.org/2000/svg">
<path fill-rule="evenodd" clip-rule="evenodd" d="M42.6701 3.0465C41.871 2.5418 40.9452 2.27393 40.0001 2.27393C39.0549 2.27393 38.1292 2.5418 37.3301 3.0465L8.99675 20.9432C8.28372 21.3935 7.69619 22.0169 7.28881 22.7553C6.88143 23.4937 6.66744 24.3232 6.66675 25.1665V54.8265C6.66675 56.5398 7.54675 58.1365 8.99675 59.0532L37.3301 76.9465C38.1292 77.4512 39.0549 77.7191 40.0001 77.7191C40.9452 77.7191 41.871 77.4512 42.6701 76.9465L71.0034 59.0532C71.7164 58.6028 72.304 57.9795 72.7114 57.241C73.1187 56.5026 73.3327 55.6732 73.3334 54.8298V25.1665C73.3333 24.3226 73.1196 23.4925 72.7122 22.7534C72.3048 22.0144 71.7169 21.3905 71.0034 20.9398L42.6701 3.04317V3.0465ZM45.0134 46.4298C43.6732 48.1507 41.8289 49.41 39.7382 50.0319C37.6476 50.6538 35.4149 50.6072 33.352 49.8987C31.2891 49.1901 29.4989 47.855 28.2316 46.0797C26.9643 44.3045 26.2831 42.1777 26.2831 39.9965C26.2831 37.8153 26.9643 35.6885 28.2316 33.9133C29.4989 32.138 31.2891 30.8029 33.352 30.0943C35.4149 29.3858 37.6476 29.3392 39.7382 29.9611C41.8289 30.583 43.6732 31.8423 45.0134 33.5632L54.1667 28.3332C51.6656 24.6045 48.0324 21.7782 43.803 20.2713C39.5735 18.7644 34.9718 18.6566 30.6764 19.9638C26.381 21.271 22.6194 23.9239 19.9464 27.5314C17.2734 31.1389 15.8305 35.51 15.8305 39.9998C15.8305 44.4897 17.2734 48.8607 19.9464 52.4682C22.6194 56.0757 26.381 58.7287 30.6764 60.0359C34.9718 61.3431 39.5735 61.2353 43.803 59.7284C48.0324 58.2215 51.6656 55.3952 54.1667 51.6665L45.0134 46.4332V46.4298ZM49.1667 38.3332V35.8332H52.5001V38.3332H55.0001V41.6665H52.5001V44.1665H49.1667V41.6665H46.6667V38.3332H49.1667ZM60.8334 44.1665V41.6665H58.3334V38.3332H60.8334V35.8332H64.1667V38.3332H66.6667V41.6665H64.1667V44.1665H60.8334Z" fill="#7C1BD0"/>
</svg>
