<svg width="80" height="80" viewBox="0 0 80 80" fill="none" xmlns="http://www.w3.org/2000/svg">
<path fill-rule="evenodd" clip-rule="evenodd" d="M37.3301 3.0465C38.1292 2.5418 39.0549 2.27393 40.0001 2.27393C40.9452 2.27393 41.871 2.5418 42.6701 3.0465L71.0034 20.9432C71.7164 21.3935 72.304 22.0169 72.7114 22.7553C73.1187 23.4937 73.3327 24.3232 73.3334 25.1665V54.8265C73.3333 55.6704 73.1196 56.5005 72.7122 57.2396C72.3048 57.9786 71.7169 58.6025 71.0034 59.0532L42.6701 76.9465C41.871 77.4512 40.9452 77.7191 40.0001 77.7191C39.0549 77.7191 38.1292 77.4512 37.3301 76.9465L8.99675 59.0532C8.28372 58.6028 7.69619 57.9795 7.28881 57.241C6.88143 56.5026 6.66744 55.6732 6.66675 54.8298V25.1665C6.66688 24.3226 6.8806 23.4925 7.288 22.7534C7.69541 22.0144 8.28325 21.3905 8.99675 20.9398L37.3301 3.04317V3.0465ZM43.0701 50.0332C45.161 49.4121 47.0058 48.1535 48.3467 46.4332L57.5001 51.6665C54.999 55.3952 51.3657 58.2215 47.1363 59.7284C42.9069 61.2353 38.3051 61.3431 34.0097 60.0359C29.7144 58.7287 25.9528 56.0757 23.2798 52.4682C20.6068 48.8607 19.1639 44.4897 19.1639 39.9998C19.1639 35.51 20.6068 31.1389 23.2798 27.5314C25.9528 23.9239 29.7144 21.271 34.0097 19.9638C38.3051 18.6566 42.9069 18.7644 47.1363 20.2713C51.3657 21.7782 54.999 24.6045 57.5001 28.3332L48.3467 33.5665C47.1766 32.0619 45.6181 30.9051 43.8391 30.2208C42.06 29.5365 40.128 29.3507 38.2512 29.6834C36.3744 30.0161 34.6239 30.8546 33.1885 32.1087C31.7531 33.3628 30.6871 34.9848 30.1054 36.7999C29.5238 38.6151 29.4485 40.5546 29.8877 42.4093C30.3269 44.2641 31.264 45.9639 32.5979 47.3254C33.9318 48.687 35.612 49.6587 37.4574 50.1358C39.3028 50.613 41.2434 50.5775 43.0701 50.0332Z" fill="#7C1BD0"/>
</svg>
