<svg width="80" height="80" viewBox="0 0 80 80" fill="none" xmlns="http://www.w3.org/2000/svg">
<path d="M61.25 0H18.75C8.39466 0 0 8.39466 0 18.75V61.25C0 71.6053 8.39466 80 18.75 80H61.25C71.6053 80 80 71.6053 80 61.25V18.75C80 8.39466 71.6053 0 61.25 0Z" fill="#7C1BD0"/>
<path d="M71.25 57.1679C70.3403 57.5126 69.3358 57.512 68.4265 57.1662C67.5172 56.8204 66.7661 56.1534 66.3153 55.2914C63.4831 51.0517 60.3556 47.0033 57.3497 42.8679L56.0463 41.1304C52.4669 45.9261 48.8875 50.5304 45.6209 55.3089C45.1955 56.1327 44.485 56.7738 43.6219 57.1126C42.7589 57.4515 41.802 57.4651 40.9297 57.1508L54.3609 39.1323L41.8678 22.8511C42.7671 22.5264 43.7509 22.5219 44.6531 22.8385C45.5553 23.155 46.3207 23.7732 46.82 24.5886C49.7216 28.8286 52.9363 32.877 56.1331 37.1689C59.3478 32.9117 62.5275 28.8458 65.4987 24.6408C65.9265 23.8302 66.6373 23.2052 67.496 22.8848C68.3547 22.5644 69.3012 22.571 70.1553 22.9033L65.3075 29.3323C63.1356 32.1992 60.9984 35.0836 58.7397 37.8811C58.5576 38.044 58.412 38.2436 58.3123 38.4666C58.2126 38.6897 58.1611 38.9313 58.1611 39.1756C58.1611 39.4199 58.2126 39.6615 58.3123 39.8846C58.412 40.1076 58.5576 40.3072 58.7397 40.4701C62.8925 45.9783 67.0103 51.5036 71.25 57.1679ZM8.75 38.9064C9.115 37.1689 9.34063 35.2748 9.84469 33.5026C12.8506 22.8167 25.1003 18.3683 33.5275 24.9886C38.4622 28.8636 39.6959 34.3542 39.4528 40.5398H11.6519C11.2 51.5908 19.1753 58.2629 29.3747 54.8573C31.0292 54.2655 32.5104 53.271 33.6843 51.9635C34.8583 50.656 35.6882 49.0767 36.0991 47.3683C36.6378 45.6308 37.5066 45.3354 39.1572 45.8392C38.8853 47.9545 38.1374 49.9806 36.9697 51.7653C35.802 53.5499 34.245 55.0467 32.4156 56.1429C29.3931 57.7961 25.9251 58.4511 22.5078 58.0142C19.0904 57.5773 15.8988 56.0709 13.3894 53.7104C10.9067 50.9189 9.40556 47.3918 9.115 43.6673C9.115 43.0767 8.88906 42.4858 8.7675 41.9298C8.756 40.922 8.75017 39.9142 8.75 38.9064ZM11.6866 38.1592H36.8291C36.6725 30.1492 31.6162 24.4673 24.8747 24.4154C17.3684 24.3111 11.9994 29.8711 11.6691 38.1245L11.6866 38.1592Z" fill="#0F0F0F"/>
</svg>
