<svg width="52" height="80" viewBox="0 0 52 80" fill="none" xmlns="http://www.w3.org/2000/svg">
<g clip-path="url(#clip0_345_948)">
<path fill-rule="evenodd" clip-rule="evenodd" d="M11.6252 28.7371C10.1631 28.7371 8.7153 29.025 7.36451 29.5846C6.01371 30.1441 4.78635 30.9642 3.7525 31.998C2.71865 33.0319 1.89855 34.2592 1.33903 35.61C0.779516 36.9608 0.491536 38.4086 0.491536 39.8707C0.491536 41.3328 0.779516 42.7805 1.33903 44.1313C1.89855 45.4821 2.71865 46.7095 3.7525 47.7434C4.78635 48.7772 6.01371 49.5973 7.36451 50.1568C8.7153 50.7163 10.1631 51.0043 11.6252 51.0043H22.7588V28.7371H11.6252ZM22.7588 22.2715H11.6252C8.67176 22.2715 5.83934 21.0983 3.75097 19.01C1.66261 16.9216 0.48938 14.0892 0.48938 11.1358C0.48938 8.18238 1.66261 5.34996 3.75097 3.26159C5.83934 1.17323 8.67176 0 11.6252 0H22.7588V22.2715ZM29.2243 0V22.2715H40.3579C43.2734 22.2142 46.0501 21.0158 48.0916 18.9336C50.1332 16.8515 51.2767 14.0518 51.2767 11.1358C51.2767 8.21976 50.1332 5.42003 48.0916 3.33792C46.0501 1.2558 43.2734 0.0573618 40.3579 0H29.2243ZM40.3579 28.7328C37.4355 28.7324 34.63 29.8811 32.5471 31.931C30.4641 33.9809 29.2707 36.7676 29.2243 39.6897V40.0474C29.26 42.2414 29.9432 44.3759 31.188 46.1828C32.4329 47.9898 34.1839 49.3886 36.2212 50.2036C38.2585 51.0186 40.4912 51.2134 42.6388 50.7635C44.7865 50.3137 46.7533 49.2393 48.2923 47.6753C49.8313 46.1113 50.8739 44.1273 51.289 41.9727C51.7041 39.8181 51.4733 37.5888 50.6256 35.565C49.7778 33.5411 48.351 31.8128 46.5242 30.5973C44.6974 29.3817 42.5522 28.7331 40.3579 28.7328ZM11.6252 57.4698C9.4221 57.469 7.26827 58.1215 5.43608 59.3448C3.60389 60.5681 2.17564 62.3074 1.33198 64.3425C0.488314 66.3776 0.267129 68.6172 0.696402 70.778C1.12567 72.9388 2.18612 74.9238 3.74362 76.4819C5.30111 78.04 7.2857 79.1012 9.44636 79.5314C11.607 79.9615 13.8467 79.7411 15.8822 78.8983C17.9176 78.0554 19.6574 76.6278 20.8814 74.7961C22.1054 72.9644 22.7588 70.8108 22.7588 68.6078V57.4698H11.6252Z" fill="#7C1BD0"/>
</g>
<defs>
<clipPath id="clip0_345_948">
<rect width="51.0345" height="80" fill="white" transform="translate(0.48291)"/>
</clipPath>
</defs>
</svg>
