<svg width="58" height="80" viewBox="0 0 58 80" fill="none" xmlns="http://www.w3.org/2000/svg">
<g clip-path="url(#clip0_349_1237)">
<path d="M57.7771 64.3523L31.5181 78.9207C29.7195 79.8559 27.921 79.8559 26.1224 78.9207L0.223145 64.3523L47.1656 17.0502L48.4246 16.6905C49.5037 16.6905 50.1152 17.1581 50.2231 18.1293L57.7771 64.3523ZM19.4678 17.7696L3.10084 44.9279L9.93537 1.94227C10.0433 0.971044 10.6548 0.503418 11.7339 0.503418C12.4534 0.503418 12.921 0.719246 13.1728 1.4027L20.9066 15.6113L19.4678 17.7696ZM35.6548 22.302L1.30228 56.7984L27.3814 12.5538C27.7411 11.8344 28.2807 11.5106 29.0001 11.5106C29.7195 11.5106 30.1872 11.8344 30.439 12.5538L35.6548 22.302Z" fill="#7C1BD0"/>
</g>
<defs>
<clipPath id="clip0_349_1237">
<rect width="57.554" height="80" fill="white" transform="translate(0.223145)"/>
</clipPath>
</defs>
</svg>
