<svg width="80" height="80" viewBox="0 0 80 80" fill="none" xmlns="http://www.w3.org/2000/svg">
<g clip-path="url(#clip0_345_1003)">
<path d="M2.69836 34.4047L25.6349 11.4285L32.3412 18.1745C31.3888 21.5476 32.9365 25.238 36.0317 27.0238V49.0079C33.6507 50.3571 32.0634 52.9365 32.0634 55.873C32.0634 57.9779 32.8996 59.9965 34.388 61.4849C35.8764 62.9733 37.8951 63.8095 39.9999 63.8095C42.1048 63.8095 44.1235 62.9733 45.6119 61.4849C47.1003 59.9965 47.9365 57.9779 47.9365 55.873C47.9365 52.9365 46.3492 50.3571 43.9682 49.0079V29.7222L52.1825 38.0158C51.9047 38.6111 51.9047 39.2857 51.9047 39.9999C51.9047 42.1048 52.7409 44.1235 54.2293 45.6119C55.7176 47.1003 57.7363 47.9365 59.8412 47.9365C61.9461 47.9365 63.9648 47.1003 65.4532 45.6119C66.9416 44.1235 67.7777 42.1048 67.7777 39.9999C67.7777 37.8951 66.9416 35.8764 65.4532 34.388C63.9648 32.8996 61.9461 32.0634 59.8412 32.0634C59.1269 32.0634 58.4523 32.0634 57.8571 32.3412L47.6587 22.1428C48.1514 20.3048 47.9604 18.3505 47.1211 16.6428C46.2818 14.935 44.8513 13.5899 43.0952 12.8571C41.3888 12.2222 39.6031 12.0634 38.0158 12.4999L31.2698 5.7936L34.4047 2.69836C37.4999 -0.436562 42.4999 -0.436562 45.5952 2.69836L77.3015 34.4047C80.4365 37.4999 80.4365 42.4999 77.3015 45.5952L45.5952 77.3015C42.4999 80.4365 37.4999 80.4365 34.4047 77.3015L2.69836 45.5952C-0.436562 42.4999 -0.436562 37.4999 2.69836 34.4047Z" fill="#7C1BD0"/>
</g>
<defs>
<clipPath id="clip0_345_1003">
<rect width="80" height="80" fill="white"/>
</clipPath>
</defs>
</svg>
