<svg width="84" height="80" viewBox="0 0 84 80" fill="none" xmlns="http://www.w3.org/2000/svg">
<path d="M41.9229 0.325195C36.5846 0.325195 31.2986 1.37665 26.3666 3.41952C21.4347 5.4624 16.9534 8.45668 13.1787 12.2314C5.55526 19.8549 1.27246 30.1944 1.27246 40.9756C1.27246 58.9431 12.9391 74.187 29.0773 79.5935C31.1099 79.9187 31.7603 78.6585 31.7603 77.561V70.691C20.5001 73.1301 18.1017 65.2439 18.1017 65.2439C16.2318 60.5284 13.5895 59.2683 13.5895 59.2683C9.89035 56.748 13.8741 56.8293 13.8741 56.8293C17.9391 57.1138 20.0936 61.0163 20.0936 61.0163C23.6302 67.1951 29.6058 65.3658 31.9229 64.3902C32.2887 61.748 33.3456 59.9593 34.4838 58.9431C25.4595 57.9268 15.9879 54.4309 15.9879 38.9431C15.9879 34.4309 17.5326 30.813 20.1749 27.9268C19.7684 26.9106 18.3456 22.6829 20.5814 17.1951C20.5814 17.1951 23.996 16.0976 31.7603 21.3415C34.9716 20.4471 38.4676 20 41.9229 20C45.3782 20 48.8741 20.4471 52.0855 21.3415C59.8497 16.0976 63.2643 17.1951 63.2643 17.1951C65.5001 22.6829 64.0773 26.9106 63.6708 27.9268C66.3131 30.813 67.8578 34.4309 67.8578 38.9431C67.8578 54.4715 58.3456 57.8862 49.2806 58.9024C50.744 60.1626 52.0855 62.6423 52.0855 66.4228V77.561C52.0855 78.6585 52.7359 79.9593 54.809 79.5935C70.9473 74.1463 82.5733 58.9431 82.5733 40.9756C82.5733 35.6373 81.5218 30.3513 79.479 25.4194C77.4361 20.4874 74.4418 16.0062 70.667 12.2314C66.8923 8.45668 62.411 5.4624 57.4791 3.41952C52.5472 1.37665 47.2612 0.325195 41.9229 0.325195Z" fill="#7C1BD0"/>
</svg>
