<svg width="80" height="80" viewBox="0 0 80 80" fill="none" xmlns="http://www.w3.org/2000/svg">
<g clip-path="url(#clip0_354_139)">
<mask id="mask0_354_139" style="mask-type:luminance" maskUnits="userSpaceOnUse" x="0" y="0" width="80" height="80">
<path d="M0 0H80V80H0V0Z" fill="white"/>
</mask>
<g mask="url(#mask0_354_139)">
<path fill-rule="evenodd" clip-rule="evenodd" d="M37.9468 13.9567C39.2168 14.341 40.569 14.3618 41.8501 14.0167L62.9368 51.29C61.9611 52.231 61.2752 53.4316 60.9601 54.75H19.0335C18.6957 53.3657 17.953 52.1135 16.9001 51.1533L37.9468 13.9567ZM34.8768 12.0733C34.939 12.14 35.0024 12.2045 35.0668 12.2667L13.9768 49.55L13.6768 49.4767V30.52C14.6358 30.3059 15.5397 29.8941 16.3306 29.311C17.1215 28.7278 17.782 27.9862 18.2701 27.1333C18.7569 26.2857 19.0644 25.3471 19.1733 24.3758C19.2823 23.4044 19.1904 22.4211 18.9035 21.4867L34.8768 12.0733ZM46.7768 9.29001C46.9968 8.60557 47.1079 7.88557 47.1101 7.13001C47.1131 6.10771 46.8957 5.09679 46.4727 4.1661C46.0497 3.23542 45.431 2.40685 44.6589 1.73683C43.8868 1.06682 42.9793 0.571106 41.9983 0.283466C41.0173 -0.00417368 39.9858 -0.0769828 38.9741 0.0699993C37.9624 0.216981 36.9943 0.580301 36.1357 1.13521C35.2771 1.69011 34.5482 2.42357 33.9987 3.2856C33.4491 4.14763 33.0919 5.11799 32.9512 6.13057C32.8105 7.14315 32.8897 8.17415 33.1835 9.15334L17.1935 18.58C16.427 17.7932 15.4884 17.195 14.4516 16.8325C13.4148 16.4699 12.308 16.3528 11.2182 16.4904C10.1285 16.6281 9.08554 17.0166 8.17142 17.6256C7.2573 18.2346 6.49694 19.0474 5.95014 20C5.40396 20.9541 5.08503 22.0213 5.01814 23.1186C4.95124 24.216 5.13818 25.314 5.56443 26.3273C5.99067 27.3407 6.64476 28.2422 7.4759 28.9618C8.30704 29.6815 9.29286 30.1998 10.3568 30.4767V49.5267C9.74348 49.6822 9.14903 49.9256 8.57348 50.2567C6.94134 51.2083 5.75169 52.7666 5.264 54.5919C4.77631 56.4171 5.03015 58.3612 5.97014 60C6.51626 60.9506 7.27511 61.7619 8.1872 62.3701C9.09929 62.9784 10.1399 63.3672 11.2274 63.506C12.3148 63.6449 13.4197 63.53 14.4554 63.1704C15.491 62.8108 16.4294 62.2163 17.1968 61.4333L33.1801 70.8533C32.9912 71.509 32.8948 72.1877 32.8935 72.87C32.8935 76.8133 36.0668 80 40.0001 80C41.1382 79.9975 42.259 79.7225 43.269 79.1981C44.279 78.6736 45.1486 77.9149 45.8053 76.9854C46.4619 76.056 46.8864 74.9828 47.0433 73.8556C47.2001 72.7284 47.0847 71.5801 46.7068 70.5067L62.5435 61.1733C63.29 62.017 64.2267 62.6708 65.276 63.0805C66.3254 63.4902 67.4573 63.6441 68.5779 63.5294C69.6986 63.4147 70.7758 63.0348 71.7205 62.4211C72.6651 61.8073 73.45 60.9774 74.0101 60C74.5717 59.0314 74.8971 57.944 74.9601 56.8262C75.023 55.7083 74.8217 54.5913 74.3724 53.5657C73.923 52.5402 73.2384 51.6349 72.374 50.9233C71.5095 50.2118 70.4896 49.7139 69.3968 49.47V30.5367C70.4905 30.2925 71.5116 29.7948 72.3778 29.0838C73.244 28.3728 73.9311 27.4684 74.3838 26.4432C74.8365 25.4181 75.0422 24.301 74.9843 23.1819C74.9263 22.0628 74.6063 20.9729 74.0501 20C73.4966 19.0389 72.7258 18.2205 71.7995 17.6105C70.8732 17.0004 69.817 16.6156 68.7153 16.4867C67.6137 16.3577 66.4972 16.4883 65.455 16.868C64.4129 17.2477 63.474 17.866 62.7135 18.6733L46.7768 9.29001ZM44.7801 12.4133L45.0301 12.1733L61.0568 21.6167C60.7952 22.5342 60.7202 23.4949 60.8364 24.4419C60.9527 25.3889 61.2577 26.303 61.7335 27.13C62.1993 27.9466 62.8234 28.662 63.5692 29.2344C64.315 29.8068 65.1675 30.2246 66.0768 30.4633V49.53L65.8168 49.6067L44.7801 12.4133ZM61.0968 58.6067L45.1835 67.9867C44.5209 67.2762 43.7189 66.7101 42.8276 66.3235C41.9364 65.937 40.975 65.7383 40.0035 65.74C37.9835 65.74 36.1635 66.58 34.8701 67.9333L18.9201 58.5333C18.9601 58.4045 18.9957 58.2733 19.0268 58.14H60.9668C61.0068 58.2956 61.0479 58.4511 61.0968 58.6067Z" fill="#7C1BD0"/>
</g>
</g>
<defs>
<clipPath id="clip0_354_139">
<rect width="80" height="80" fill="white"/>
</clipPath>
</defs>
</svg>
