<svg width="80" height="80" viewBox="0 0 80 80" fill="none" xmlns="http://www.w3.org/2000/svg">
<g clip-path="url(#clip0_345_868)">
<path d="M13.6843 0.526367C10.1946 0.526367 6.84781 1.91264 4.38023 4.38023C1.91264 6.84781 0.526367 10.1946 0.526367 13.6843V66.3158C0.526367 69.8055 1.91264 73.1523 4.38023 75.6199C6.84781 78.0875 10.1946 79.4737 13.6843 79.4737H66.3158C69.8055 79.4737 73.1523 78.0875 75.6199 75.6199C78.0875 73.1523 79.4737 69.8055 79.4737 66.3158V13.6843C79.4737 10.1946 78.0875 6.84781 75.6199 4.38023C73.1523 1.91264 69.8055 0.526367 66.3158 0.526367H13.6843ZM45.8509 57.7851C49.0088 60.329 52.1609 61.5834 55.3071 61.5483C57.2369 61.5483 58.7164 61.1945 59.7457 60.4869C60.2249 60.1758 60.6148 59.7453 60.8771 59.2377C61.1393 58.7301 61.2648 58.163 61.2413 57.5922C61.248 56.9695 61.1179 56.353 60.8602 55.7861C60.6025 55.2192 60.2236 54.7158 59.7501 54.3115C58.7208 53.4138 56.7734 52.5132 53.9079 51.6097C50.4664 50.6156 47.8129 49.329 45.9474 47.7501C44.117 46.1711 43.1843 43.9679 43.1492 41.1404C43.1492 38.4708 44.3071 36.2354 46.6229 34.4343C48.8743 32.6331 51.7544 31.7325 55.2632 31.7325C60.1521 31.7325 64.0746 32.9226 67.0308 35.3027L63.6536 40.5615C62.4375 39.616 61.0425 38.9267 59.5527 38.5351C58.2139 38.0866 56.8151 37.8426 55.4036 37.8115C53.7369 37.8115 52.4021 38.117 51.3992 38.7281C50.405 39.3422 49.908 40.1463 49.908 41.1404C49.908 42.234 50.5176 43.1667 51.7369 43.9387C52.965 44.6813 55.0556 45.5015 58.0088 46.3992C61.579 47.4606 64.1199 48.8758 65.6316 50.6448C67.1433 52.4138 67.8992 54.6653 67.8992 57.3992C67.8992 60.1974 66.8217 62.6097 64.6667 64.636C62.5439 66.6302 59.4562 67.6755 55.4036 67.772C50.0965 67.772 45.658 66.1799 42.0878 62.9957L45.8509 57.7851ZM21.5965 60.5834C22.6258 61.2267 23.8641 61.5483 25.3115 61.5483C26.8232 61.5483 28.0775 61.1141 29.0746 60.2457C30.0688 59.3451 30.5673 57.7851 30.5702 55.5658V32.3115H37.0834V56.8202C36.9869 60.6156 35.8933 63.3495 33.8027 65.022C32.6587 65.9891 31.3288 66.7116 29.8948 67.1448C28.565 67.5497 27.1839 67.7609 25.7939 67.772C23.3816 67.772 21.2427 67.3539 19.3772 66.5176C17.3831 65.6199 15.7106 64.0278 14.3597 61.7413L18.8948 58.0264C19.7281 59.1521 20.6287 60.0044 21.5965 60.5834Z" fill="#7C1BD0"/>
</g>
<defs>
<clipPath id="clip0_345_868">
<rect width="80" height="80" fill="white"/>
</clipPath>
</defs>
</svg>
