<svg width="80" height="80" viewBox="0 0 80 80" fill="none" xmlns="http://www.w3.org/2000/svg">
<path d="M71.78 22.1665C71.78 24.0159 71.0453 25.7896 69.7376 27.0974C68.4298 28.4051 66.6561 29.1398 64.8067 29.1398C62.9572 29.1398 61.1835 28.4051 59.8758 27.0974C58.568 25.7896 57.8333 24.0159 57.8333 22.1665C57.8045 21.2326 57.9635 20.3024 58.3009 19.4312C58.6384 18.5599 59.1474 17.7653 59.7978 17.0945C60.4482 16.4236 61.2267 15.8903 62.0871 15.5261C62.9475 15.1619 63.8723 14.9742 64.8067 14.9742C65.741 14.9742 66.6658 15.1619 67.5263 15.5261C68.3867 15.8903 69.1652 16.4236 69.8156 17.0945C70.466 17.7653 70.975 18.5599 71.3124 19.4312C71.6499 20.3024 71.8089 21.2326 71.78 22.1665ZM53.18 19.0665C53.1804 20.3898 52.9202 21.7002 52.4142 22.9229C51.9083 24.1457 51.1664 25.2567 50.231 26.1928C49.2956 27.1288 48.185 27.8714 46.9626 28.3782C45.7402 28.885 44.43 29.1461 43.1067 29.1465H42.8467V25.2665C42.8467 24.0553 42.3655 22.8938 41.5091 22.0374C40.6527 21.181 39.4912 20.6998 38.28 20.6998H33.16C32.9236 19.2577 33.0037 17.7813 33.3948 16.3732C33.7859 14.9651 34.4786 13.6589 35.4249 12.5452C36.3711 11.4315 37.5483 10.537 38.8748 9.92362C40.2013 9.31027 41.6453 8.99278 43.1067 8.99317C44.4301 8.99185 45.7407 9.25149 46.9636 9.75721C48.1866 10.2629 49.2978 11.0048 50.2337 11.9404C51.1696 12.8761 51.9119 13.987 52.418 15.2098C52.9242 16.4326 53.1809 17.7431 53.18 19.0665ZM73.3333 35.1898V50.8765C73.3333 53.7479 72.1934 56.5019 70.1639 58.5333C68.1344 60.5647 65.3815 61.7072 62.51 61.7098H62.46C60.8632 61.7153 59.2855 61.3622 57.8433 60.6765C56.4934 63.6866 54.3201 66.2539 51.5741 68.0822C48.8281 69.9105 45.6212 70.9254 42.3233 71.0098C38.7792 70.9212 35.3457 69.7581 32.4772 67.6748C29.6087 65.5914 27.4406 62.686 26.26 59.3432H38.28C40.8033 59.3432 42.8467 57.3032 42.8467 54.7832V32.2498H70.3867C72.02 32.2498 73.3333 33.5632 73.3333 35.1898Z" fill="#7C1BD0"/>
<path d="M40.7201 25.2398C40.6649 24.9735 40.5694 24.7172 40.4367 24.4798L40.4168 24.4298C40.1683 23.9901 39.8082 23.6238 39.3727 23.368C38.9372 23.1122 38.4418 22.976 37.9367 22.9732H9.51008C9.13688 22.9718 8.7671 23.0443 8.42197 23.1863C8.07684 23.3283 7.76317 23.5371 7.49897 23.8007C7.23476 24.0642 7.02523 24.3774 6.88242 24.7222C6.7396 25.067 6.66631 25.4366 6.66675 25.8098V54.2265C6.66675 55.7998 7.93675 57.0698 9.51008 57.0698H37.9367C39.5001 57.0698 40.7701 55.7998 40.7701 54.2265V25.8132C40.7701 25.6176 40.7534 25.4265 40.7201 25.2398ZM31.1968 33.7665H25.4167V49.2432H21.8967V33.7665H16.2401V30.7665H31.1968V33.7665Z" fill="#7C1BD0"/>
</svg>
