<svg width="80" height="80" viewBox="0 0 80 80" fill="none" xmlns="http://www.w3.org/2000/svg">
<g clip-path="url(#clip0_1019_625)">
<path d="M46.7133 24.5669C45.8148 24.5543 44.9161 24.5821 44.02 24.6502C43.2933 24.7069 42.5733 24.8902 41.8533 25.0169C42.6167 25.4102 43.3733 25.7269 44.12 26.0669C44.8733 26.4113 45.5722 26.8413 46.2167 27.3569C45.3733 27.0336 44.5533 26.6636 43.71 26.3636C41.9597 25.7074 40.1453 25.237 38.2967 24.9602C37.3867 24.8369 36.4767 24.7169 35.5667 24.9769C34.6467 25.2369 34.3867 25.5769 34.3 26.5036C34.1667 28.0369 34.6267 29.4602 35.2367 30.8302C36.1402 32.854 37.4907 34.6467 39.1867 36.0736C40.4807 37.1838 41.9509 38.0704 43.5367 38.6969L44.9067 39.2136L44.8767 39.3202C44 39.0802 43.1033 38.9002 42.2533 38.5869C40.7641 38.0195 39.3855 37.196 38.18 36.1536C36.8136 35.0229 35.6745 33.6428 34.8233 32.0869C33.9083 30.4456 33.4158 28.6025 33.39 26.7236L33.35 26.7402C16.3033 24.9602 1.34 38.6502 0.116667 39.8002L0.00333333 39.8469C-0.00111111 39.8625 0.00222222 39.8802 0.0133333 39.9002L0 39.9136L0.0166667 39.9069L0.06 39.9869C0.35 39.9236 0.636667 39.8469 0.926667 39.8069L1.15667 39.7736C2.23667 39.3902 3.34 39.0902 4.48 38.9302C6.09333 38.7002 7.76333 38.4002 9.41333 38.4102C10.9733 38.4169 12.5567 38.6569 14.0867 38.9202C14.5156 38.9958 14.9378 39.0925 15.3533 39.2102C16.47 39.4602 17.52 39.9102 18.4633 40.5136L18.6633 40.6136C20.0067 41.2469 21.19 42.1802 22.1233 43.3169C22.2967 43.5069 22.5933 43.7036 22.7467 43.9102C23.0667 44.2902 23.22 44.6969 23.7567 45.1202V39.3302H30.4567L33.5867 45.1069L36.7267 39.3302H43.6267V50.5202L44.77 49.7669C44.77 49.7669 46.02 46.4336 51.8233 45.9669L58.4767 45.7536C57.45 43.6302 57.4533 43.6302 57.9467 42.9869C58.4367 42.3536 62.2133 41.9402 62.88 41.5436L72.5867 39.5836C72.61 39.5102 72.6367 39.6236 72.6867 39.6069C72.9267 39.5336 73.1767 39.4836 73.52 39.4036L75.72 38.8702C75.86 38.7869 76.03 38.7569 76.1867 38.7036C77.2133 38.3469 78.11 37.8869 78.6067 36.7936C79.09 35.7302 79.7367 34.7402 79.9733 33.5702C80.0467 33.2002 79.9833 32.8769 79.7133 32.6102C79.3832 32.3181 78.98 32.1211 78.5467 32.0402C77.1433 31.4636 75.7467 30.8736 74.3333 30.3302C73.4633 29.9936 72.57 29.7136 71.6833 29.4302C70.8048 29.1484 69.9225 28.8784 69.0367 28.6202C68.2233 28.3847 67.4056 28.1569 66.5833 27.9369C65.7833 27.7169 64.9833 27.4936 64.1833 27.2969C63.2433 27.0636 62.3 26.8636 61.36 26.6469C60.6433 26.4802 59.9333 26.3069 59.2133 26.1602C58.4333 26.0047 57.6489 25.8602 56.86 25.7269C55.8533 25.5502 54.8533 25.3536 53.8433 25.2169C52.6233 25.0502 51.3967 24.9436 50.1733 24.8002C49.0222 24.6647 47.8689 24.5869 46.7133 24.5669ZM35.7033 27.1236C35.7663 27.1225 35.8292 27.1303 35.89 27.1469C37.29 27.5802 38.6567 28.0702 39.9433 28.7836C41.16 29.4602 42.26 30.2836 43.2067 31.3036C43.2467 31.3469 43.2733 31.3969 43.3267 31.4702L41.1767 30.4936L41.1067 30.5802L42.34 32.4169L42.2667 32.4902C41.6008 31.9979 40.8491 31.6339 40.05 31.4169L39.9833 31.4836L42.0933 33.9502L40.7067 33.4969L40.65 33.5636C41.1933 34.4636 41.9033 35.2469 42.5833 36.1469C41.4033 35.4802 40.3667 34.7469 39.3967 33.9169C38.0534 32.8059 36.9142 31.4692 36.03 29.9669C35.6733 29.3336 35.36 28.6836 35.29 27.9469C35.2769 27.7793 35.2893 27.6108 35.3267 27.4469C35.3439 27.3585 35.3904 27.2784 35.4588 27.2197C35.5271 27.1611 35.6133 27.1272 35.7033 27.1236ZM53.7833 29.3502C54.2967 29.3569 54.82 29.3302 55.33 29.4002C56.2567 29.5236 57.18 29.7069 58.1033 29.8669C58.63 29.9569 59.16 30.0402 59.6833 30.1536C60.6744 30.3713 61.6633 30.5936 62.65 30.8202C63.3033 30.9713 63.9555 31.1269 64.6067 31.2869L63.51 31.8236C62.2933 31.9136 61.0733 32.0069 59.8533 32.0136C59.0968 32.0089 58.3429 31.9263 57.6033 31.7669C56.67 31.5736 55.89 31.1136 55.43 30.2136C55.3633 30.0802 55.13 30.0036 54.9633 29.9536C54.3633 29.7736 53.7567 29.6202 53.15 29.3936C53.36 29.3769 53.57 29.3469 53.7833 29.3502ZM64.5267 38.1336L64.5433 38.2002C64.2767 38.2691 64.0111 38.3436 63.7467 38.4236C62.23 38.8902 60.6933 39.3102 59.2033 39.8502C58.27 40.1869 57.39 40.6836 56.5033 41.1436C55.7267 41.5402 55.4533 42.2169 55.5467 43.0602C55.6133 43.6002 55.6744 44.1425 55.73 44.6869C55.2478 43.985 54.9205 43.1884 54.77 42.3502C54.6533 41.7869 54.9633 41.4402 55.37 41.1336C56.1633 40.5402 57.0233 40.0736 57.96 39.7669C59.1267 39.3769 60.3 38.9902 61.49 38.6836C62.3267 38.4669 63.2 38.3836 64.0567 38.2402C64.2144 38.2091 64.3711 38.1736 64.5267 38.1336ZM30.47 46.5169V55.4369H36.7L36.9133 55.2169V46.5169L33.68 51.5002L30.47 46.5169Z" fill="#7C1BD0"/>
</g>
<defs>
<clipPath id="clip0_1019_625">
<rect width="80" height="80" fill="white"/>
</clipPath>
</defs>
</svg>
