<svg width="80" height="80" viewBox="0 0 80 80" fill="none" xmlns="http://www.w3.org/2000/svg">
<path d="M45.8 14.0999C43.7988 11.7149 41.894 9.25068 40.09 6.71326C40.0798 6.69882 40.0663 6.68703 40.0507 6.67889C40.035 6.67075 40.0176 6.6665 40 6.6665C39.9823 6.6665 39.9649 6.67075 39.9493 6.67889C39.9336 6.68703 39.9201 6.69882 39.91 6.71326C38.106 9.25181 36.2012 11.7171 34.2 14.1033C10.16 44.7266 37.9933 65.3866 37.9933 65.3866L38.2166 65.5433C38.43 68.7399 38.9533 73.3333 38.9533 73.3333H41.0466C41.0466 73.3333 41.57 68.7599 41.78 65.5666L42.01 65.3866C42.01 65.3866 69.84 44.7266 45.8033 14.1033M40 64.9399C40 64.9399 38.7533 63.8733 38.4166 63.3399L38.4133 63.2866L39.9233 29.9466C39.927 29.9286 39.9369 29.9124 39.9511 29.9008C39.9654 29.8892 39.9832 29.8828 40.0016 29.8828C40.02 29.8828 40.0379 29.8892 40.0521 29.9008C40.0664 29.9124 40.0762 29.9286 40.08 29.9466L41.5866 63.2866V63.3433C41.25 63.8766 40 64.9399 40 64.9399Z" fill="#7C1BD0"/>
</svg>
