<svg width="80" height="80" viewBox="0 0 80 80" fill="none" xmlns="http://www.w3.org/2000/svg">
<g clip-path="url(#clip0_1029_709)">
<path d="M36.8388 74.9388V58.4825L37.2969 58.0237H42.795L43.2531 58.4819V74.9388L42.795 75.3969H37.2975L36.8388 74.9388ZM36.8388 21.915V5.45875L37.2969 5H42.795L43.2531 5.45812V21.915L42.795 22.3731H37.2975L36.8388 21.915ZM79.5481 43.4056H57.6056L57.1475 42.9475V37.45L57.6056 36.9919H79.5481L80.0062 37.45V42.9481L79.5481 43.4056ZM22.4006 43.4056H0.458125L0 42.9475V37.45L0.458125 36.9919H22.4006L22.8588 37.45V42.9481L22.4006 43.4056ZM50.2875 51.6281H44.8019L44.3437 51.17V38.3288C44.3437 36.0438 43.4463 34.2731 40.6913 34.2112C39.2731 34.1737 37.6512 34.2112 35.9175 34.28L35.6575 34.5456V51.1637L35.1994 51.6219H29.7125L29.2544 51.1637V29.2275L29.7125 28.7687H42.0581C46.8562 28.7687 50.745 32.6575 50.745 37.4563V51.17L50.2875 51.6281ZM17.0956 21.1344V20.3794L20.8663 16.6087H21.6213L27.3856 22.3731V26.3669L26.8531 26.8994H22.8594L17.0956 21.1344ZM21.6213 63.7819H20.8663L17.0956 60.0112V59.2556L22.86 53.4919H26.8537L27.3856 54.0238V58.0175L21.6213 63.7819Z" fill="#7C1BD0"/>
</g>
<defs>
<clipPath id="clip0_1029_709">
<rect width="80" height="80" fill="white"/>
</clipPath>
</defs>
</svg>
