<svg width="80" height="80" viewBox="0 0 80 80" fill="none" xmlns="http://www.w3.org/2000/svg">
<g clip-path="url(#clip0_1019_611)">
<path d="M59.3725 75.0127C59.075 75.1702 59.1 75.2202 59.385 75.0752C59.4731 75.0398 59.5537 74.9881 59.6225 74.9227C59.6225 74.8702 59.6225 74.8702 59.3725 75.0127ZM59.9725 74.6877C59.83 74.8052 59.83 74.8052 60 74.7277C60.0618 74.6965 60.119 74.657 60.17 74.6102C60.17 74.5427 60.13 74.5577 59.9725 74.6877ZM60.3625 74.4527C60.22 74.5702 60.22 74.5702 60.39 74.4927C60.452 74.4608 60.5092 74.4204 60.56 74.3727C60.56 74.3102 60.52 74.3227 60.3625 74.4527ZM60.7575 74.2202C60.615 74.3377 60.615 74.3377 60.78 74.2577C60.8725 74.2077 60.95 74.1552 60.95 74.1402C60.95 74.0777 60.91 74.0902 60.7575 74.2202ZM61.29 73.8677C61.0175 74.0502 60.9225 74.1677 61.1725 74.0377C61.34 73.9352 61.625 73.7102 61.575 73.7102C61.4675 73.7502 61.3775 73.8177 61.2875 73.8677H61.29ZM37.3825 0.0276524C37.2 0.0401524 36.6525 0.0901524 36.1725 0.130152C24.8025 1.16015 14.165 7.28015 7.4225 16.7077C3.69397 21.8769 1.2717 27.8717 0.3625 34.1802C0.04 36.3802 0 37.0302 0 40.0127C0 42.9927 0.04 43.6327 0.3625 45.8327C2.54 60.8602 13.23 73.4752 27.72 78.1502C30.3275 78.9827 33.06 79.5577 36.1725 79.9102C37.3825 80.0402 42.615 80.0402 43.825 79.9102C49.205 79.3102 53.7475 77.9827 58.2425 75.6902C58.9325 75.3402 59.0625 75.2477 58.97 75.1702C56.7772 72.2716 54.603 69.359 52.4475 66.4327L46.055 57.8002L38.0475 45.9377C35.384 41.9658 32.6931 38.0124 29.975 34.0777C29.9475 34.0777 29.9125 39.3502 29.8975 45.7802C29.87 57.0427 29.87 57.5002 29.7275 57.7602C29.5912 58.0745 29.3463 58.3292 29.0375 58.4777C28.79 58.5952 28.5675 58.6202 27.385 58.6202H26.0325L25.68 58.4002C25.4596 58.2581 25.2803 58.0607 25.16 57.8277L24.99 57.4752L25.0025 41.7977L25.03 26.1202L25.2775 25.8077C25.4376 25.6176 25.6318 25.4591 25.85 25.3402C26.1775 25.1827 26.3075 25.1577 27.66 25.1577C29.2475 25.1577 29.51 25.2202 29.9275 25.6777C33.1713 30.5023 36.3872 35.3458 39.575 40.2077C44.7725 48.0877 51.8675 58.8402 55.355 64.1152L61.6975 73.7127L62.01 73.5052C65.0571 71.4783 67.8192 69.0526 70.2225 66.2927C75.2608 60.525 78.5304 53.4277 79.64 45.8502C79.9625 43.6502 80.0025 42.9977 80.0025 40.0177C80.0025 37.0377 79.9625 36.3977 79.64 34.1977C77.4625 19.1702 66.7725 6.55515 52.2825 1.87765C49.5744 1.02023 46.7871 0.436479 43.9625 0.135152C43.205 0.0576524 38.035 -0.0348476 37.385 0.0326524L37.3825 0.0276524ZM53.75 24.2202C53.9362 24.3111 54.1023 24.4386 54.2384 24.5949C54.3746 24.7512 54.478 24.9332 54.5425 25.1302C54.61 25.3402 54.6225 29.6877 54.61 39.4802L54.5825 53.5402L52.11 49.7402L49.6225 45.9377V35.7302C49.6225 29.1127 49.65 25.4027 49.685 25.2202C49.8074 24.8017 50.0881 24.4474 50.4675 24.2327C50.7775 24.0752 50.8975 24.0627 52.135 24.0627C53.2925 24.0627 53.49 24.0752 53.75 24.2202Z" fill="#7C1BD0"/>
</g>
<defs>
<clipPath id="clip0_1019_611">
<rect width="80" height="80" fill="white"/>
</clipPath>
</defs>
</svg>
