<svg width="130" height="80" viewBox="0 0 130 80" fill="none" xmlns="http://www.w3.org/2000/svg">
<g clip-path="url(#clip0_345_1001)">
<path d="M63.9955 79.6015C63.5712 79.6015 63.1469 79.4803 62.763 79.2782L58.8837 76.9749C58.2977 76.6516 58.5806 76.5304 58.7827 76.4698C59.5504 76.2071 59.7121 76.1465 60.5405 75.6616C60.6213 75.6212 60.7425 75.6414 60.8233 75.6818L63.8136 77.4598C63.9147 77.5204 64.0763 77.5204 64.1773 77.4598L75.8557 70.7114C75.9567 70.6508 76.0375 70.5296 76.0375 70.3881V56.9116C76.0375 56.7702 75.9769 56.6489 75.8557 56.5883L64.1773 49.8601C64.0763 49.7995 63.9349 49.7995 63.8136 49.8601L52.1353 56.5883C52.0141 56.6489 51.9535 56.7904 51.9535 56.9116V70.3881C51.9535 70.5094 52.0343 70.6306 52.1353 70.6912L55.3276 72.5299C57.0653 73.3987 58.1361 72.3682 58.1361 71.358V58.043C58.1361 57.8612 58.2775 57.6996 58.4796 57.6996H59.9545C60.1364 57.6996 60.298 57.841 60.298 58.043V71.358C60.298 73.6815 59.0453 74.9948 56.843 74.9948C56.1762 74.9948 55.6307 74.9948 54.1558 74.2675L51.0847 72.5096C50.3371 72.0651 49.8522 71.257 49.8522 70.3881V56.9116C49.8522 56.0428 50.3169 55.2144 51.0847 54.7901L62.763 48.0417C63.5106 47.6174 64.4804 47.6174 65.2078 48.0417L76.8861 54.7901C77.6337 55.2346 78.1186 56.0428 78.1186 56.9116V70.3881C78.1186 71.257 77.6539 72.0853 76.8861 72.5096L65.2078 79.258C64.8643 79.4803 64.44 79.6015 63.9955 79.6015ZM73.4311 66.3068C73.4311 63.7812 71.7339 63.1144 68.1375 62.6295C64.5006 62.1446 64.1369 61.9022 64.1369 61.0536C64.1369 60.3464 64.44 59.417 67.1272 59.417C69.5316 59.417 70.4206 59.9423 70.7843 61.5587C70.8247 61.7203 70.9459 61.8213 71.1076 61.8213H72.6229C72.7239 61.8213 72.8047 61.7809 72.8654 61.7203C72.926 61.6395 72.9664 61.5587 72.9462 61.4577C72.7037 58.6694 70.8651 57.3763 67.1272 57.3763C63.7934 57.3763 61.8134 58.7906 61.8134 61.1344C61.8134 63.7004 63.7934 64.3873 66.9858 64.7106C70.8045 65.0945 71.1076 65.64 71.1076 66.3876C71.1076 67.7009 70.0569 68.2464 67.5919 68.2464C64.5006 68.2464 63.8136 67.4787 63.5914 65.9431C63.5712 65.7815 63.4297 65.6602 63.2479 65.6602H61.7326C61.5507 65.6602 61.3891 65.8017 61.3891 66.0037C61.3891 67.9636 62.4599 70.3073 67.5717 70.3073C71.3096 70.3073 73.4311 68.8526 73.4311 66.3068ZM84.4427 56.1842C84.4427 57.4167 83.4324 58.4269 82.2 58.4269C80.9675 58.4269 79.9572 57.4167 79.9572 56.1842C79.9572 54.9113 81.0079 53.9415 82.2 53.9415C83.4122 53.9213 84.4427 54.9113 84.4427 56.1842ZM84.079 56.1842C84.079 55.1336 83.2304 54.3052 82.1797 54.3052C81.1493 54.3052 80.3007 55.1336 80.3007 56.1842C80.3007 57.2349 81.1493 58.0835 82.1797 58.0835C83.2304 58.0633 84.079 57.2147 84.079 56.1842ZM83.1698 57.4369H82.6445C82.6243 57.3157 82.5434 56.6691 82.5434 56.6489C82.503 56.5075 82.4626 56.4267 82.2808 56.4267H81.8363V57.4369H81.3514V54.9113H82.2202C82.5232 54.9113 83.1092 54.9113 83.1092 55.5781C83.1092 56.0428 82.8061 56.1438 82.6243 56.2044C82.9677 56.2246 82.9879 56.4469 83.0486 56.7702C83.0688 56.9722 83.1092 57.3157 83.1698 57.4369ZM82.604 55.6589C82.604 55.3154 82.3616 55.3154 82.2404 55.3154H81.8363V56.0226H82.2202C82.5434 56.0226 82.604 55.8003 82.604 55.6589ZM27.829 26.8671C27.829 26.3216 27.5461 25.8367 27.0814 25.574L14.6959 18.4418C14.4939 18.3205 14.2514 18.2599 14.009 18.2397H13.8877C13.6453 18.2397 13.423 18.3205 13.2008 18.4418L0.835466 25.574C0.370757 25.8367 0.0878906 26.3418 0.0878906 26.8671L0.108095 46.0616C0.108095 46.3243 0.249529 46.5668 0.471781 46.7082C0.694033 46.8496 0.976899 46.8496 1.21936 46.7082L8.57388 42.4854C9.03859 42.2025 9.32146 41.7176 9.32146 41.1923V32.2214C9.32146 31.6961 9.60432 31.1909 10.069 30.9283L13.2008 29.1301C13.4432 28.9886 13.6857 28.928 13.9483 28.928C14.211 28.928 14.4737 28.9886 14.6959 29.1301L17.8277 30.9283C18.2924 31.1909 18.5752 31.6961 18.5752 32.2214V41.1923C18.5752 41.7176 18.8581 42.2227 19.3228 42.4854L26.6773 46.7082C26.8996 46.8496 27.2027 46.8496 27.4249 46.7082C27.6472 46.587 27.7886 46.3243 27.7886 46.0616L27.829 26.8671ZM95.5553 5.91482V41.556C95.5553 42.0813 95.2724 42.5864 94.8077 42.8491L82.4222 50.0016C81.9575 50.2642 81.3918 50.2642 80.9271 50.0016L68.5415 42.8491C68.0768 42.5864 67.794 42.0813 67.794 41.556V27.251C67.794 26.7257 68.0768 26.2206 68.5415 25.9579L80.9271 18.8054C81.3918 18.5428 81.9575 18.5428 82.4222 18.8054L85.5135 20.5835C85.857 20.7855 86.3015 20.5228 86.3015 20.139V1.1465C86.3015 0.580764 86.9077 0.217078 87.4128 0.499945L94.7875 4.62171C95.2522 4.86417 95.5553 5.36929 95.5553 5.91482ZM86.2611 31.9587C86.2611 31.8173 86.1803 31.6961 86.0793 31.6355L81.8363 29.1705C81.715 29.1099 81.5736 29.1099 81.4524 29.1705L77.2094 31.6355C77.0882 31.6961 77.0275 31.8173 77.0275 31.9587V36.8685C77.0275 37.0099 77.1084 37.1311 77.2094 37.1918L81.4524 39.6365C81.5736 39.6971 81.715 39.6971 81.8161 39.6365L86.0591 37.1918C86.1803 37.1311 86.2409 37.0099 86.2409 36.8685V31.9587H86.2611ZM128.651 31.8173C129.115 31.5546 129.398 31.0495 129.398 30.5242V27.0692C129.398 26.5439 129.115 26.0387 128.651 25.7761L116.346 18.6236C115.881 18.3609 115.316 18.3609 114.851 18.6236L102.465 25.7761C102.001 26.0387 101.718 26.5439 101.718 27.0692V41.3741C101.718 41.9197 102.001 42.4046 102.465 42.6672L114.77 49.6783C115.214 49.9409 115.78 49.9409 116.245 49.6783L123.68 45.5363C124.185 45.2534 124.185 44.5261 123.68 44.2432L111.214 37.0907C110.971 36.9493 110.83 36.7068 110.83 36.4442V31.9587C110.83 31.6961 110.971 31.4536 111.214 31.3122L115.093 29.0694C115.316 28.928 115.619 28.928 115.841 29.0694L119.72 31.3122C119.942 31.4536 120.104 31.6961 120.104 31.9587V35.4744C120.104 36.0401 120.73 36.4038 121.236 36.1209L128.651 31.8173ZM113.032 32.5245C112.952 32.5851 112.891 32.6659 112.891 32.7669V35.5148C112.891 35.6158 112.952 35.7168 113.032 35.7572L115.417 37.1311C115.497 37.1918 115.619 37.1918 115.699 37.1311L118.084 35.7572C118.164 35.6966 118.225 35.6158 118.225 35.5148V32.7669C118.225 32.6659 118.164 32.5649 118.084 32.5245L115.699 31.1505C115.619 31.0899 115.497 31.0899 115.417 31.1505L113.032 32.5245ZM61.6719 41.3135V27.0894C61.6719 26.5641 61.3487 26.0589 60.8839 25.7963L48.5389 18.6842C48.1146 18.4418 47.5286 18.4013 47.0437 18.6842L34.6986 25.7963C34.2339 26.0589 33.9106 26.5439 33.9106 27.0894V41.3135C33.9106 41.8793 34.2945 42.3642 34.7188 42.6066L47.0841 49.7187C47.569 50.0016 48.1348 49.9814 48.5793 49.7187L60.9042 42.6066C61.2678 42.4046 61.5305 42.0611 61.6315 41.657C61.6517 41.556 61.6719 41.4348 61.6719 41.3135ZM46.6598 16.0778L46.4982 16.1788H46.7204L46.6598 16.0778ZM62.0558 42.3844L61.975 42.2429V42.4248L62.0558 42.3844Z" fill="#7C1BD0"/>
</g>
<defs>
<clipPath id="clip0_345_1001">
<rect width="129.825" height="80" fill="white" transform="translate(0.0878906)"/>
</clipPath>
</defs>
</svg>
