<svg width="80" height="80" viewBox="0 0 80 80" fill="none" xmlns="http://www.w3.org/2000/svg">
<path d="M40 18.9575C17.9087 18.9575 0 28.3794 0 40C0 51.6206 17.9087 61.0425 40 61.0425C62.0906 61.0425 80 51.6206 80 40C80 28.3794 62.0913 18.9575 40 18.9575ZM36.2613 25.0888H40.8194V25.0906L39.7288 30.6956H43.7887C46.3437 30.6956 48.1058 31.1413 49.075 32.0325C50.045 32.9242 50.3362 34.3679 49.9487 36.3638L48.0406 46.1763H43.4106L45.2244 36.8456C45.4306 35.7848 45.3546 35.0613 44.9963 34.675C44.6379 34.2896 43.8758 34.0969 42.71 34.0969H39.0675L36.72 46.175H32.1631L36.2613 25.0888ZM16.7062 30.6963H25.5394C28.1973 30.6963 30.1358 31.3938 31.355 32.7888C32.5737 34.1834 32.94 36.1304 32.4537 38.63C32.2533 39.66 31.9148 40.6017 31.4381 41.455C30.9615 42.3084 30.3385 43.0886 29.5694 43.7956C28.6519 44.654 27.6329 45.2656 26.5125 45.6306C25.3912 45.9956 23.9625 46.1779 22.2263 46.1775H18.2925L17.2019 51.7838H12.6081L16.7062 30.6963ZM52.56 30.6963H61.3912C64.0487 30.6963 65.9869 31.3938 67.2056 32.7888H67.2069C68.426 34.1834 68.7927 36.1304 68.3069 38.63C68.1069 39.66 67.7687 40.6017 67.2925 41.455C66.8162 42.3084 66.1929 43.0886 65.4225 43.7956C64.5058 44.654 63.4865 45.2656 62.3644 45.6306C61.2435 45.9956 59.8154 46.1779 58.08 46.1775H54.1456L53.0556 51.7838H48.4619L52.56 30.6963ZM20.6531 34.0244L18.9394 42.8494H21.7319C23.5844 42.8498 24.964 42.5013 25.8706 41.8038C26.7765 41.1059 27.3883 39.9409 27.7063 38.3088C28.0096 36.7413 27.8708 35.6352 27.29 34.9906C26.7092 34.3461 25.5458 34.0238 23.8 34.0238L20.6531 34.0244ZM56.505 34.0244L54.79 42.8494H57.5838C59.4363 42.8498 60.8158 42.5013 61.7225 41.8038C62.6279 41.1059 63.2394 39.9409 63.5569 38.3088C63.861 36.7413 63.7227 35.6352 63.1419 34.9906C62.561 34.3461 61.3977 34.0238 59.6519 34.0238L56.505 34.0244Z" fill="#7C1BD0"/>
</svg>
