<svg width="80" height="80" viewBox="0 0 80 80" fill="none" xmlns="http://www.w3.org/2000/svg">
<path d="M13.3432 52.4268C13.0121 51.9018 12.8342 51.2947 12.8294 50.674C12.8247 50.0532 12.9934 49.4435 13.3166 48.9135L38.2466 8.25015C38.561 7.73824 39.0085 7.32126 39.5413 7.04365C40.0742 6.76604 40.6723 6.63822 41.272 6.6738C41.8718 6.70938 42.4506 6.90703 42.9469 7.24569C43.4431 7.58435 43.8382 8.05132 44.0899 8.59682L66.8632 57.9968C67.0617 58.4282 67.1652 58.8971 67.167 59.372C67.1687 59.8468 67.0686 60.3165 66.8733 60.7493C66.6781 61.1822 66.3923 61.5681 66.0352 61.8811C65.678 62.194 65.258 62.4267 64.8032 62.5635L29.3766 73.1968C28.6834 73.4048 27.9412 73.3806 27.2631 73.1279C26.5849 72.8751 26.0079 72.4077 25.6199 71.7968L13.3432 52.4268ZM41.1232 20.1402L32.3566 63.8001C32.3143 64.0104 32.3272 64.2279 32.3939 64.4317C32.4606 64.6355 32.5788 64.8186 32.7372 64.9632C32.8955 65.1078 33.0885 65.209 33.2975 65.2569C33.5065 65.3048 33.7244 65.2979 33.9299 65.2368L58.4066 57.9302C58.5752 57.8801 58.7313 57.7948 58.8645 57.6799C58.9977 57.5651 59.105 57.4232 59.1794 57.2638C59.2537 57.1044 59.2934 56.931 59.2958 56.7551C59.2982 56.5793 59.2632 56.4049 59.1932 56.2435L43.4866 19.8935C43.3831 19.6477 43.2033 19.4417 42.9737 19.3059C42.7442 19.1701 42.4771 19.1117 42.2118 19.1393C41.9465 19.167 41.6972 19.2792 41.5006 19.4594C41.3039 19.6396 41.1738 19.8783 41.1232 20.1402Z" fill="#7C1BD0"/>
</svg>
