<svg width="90" height="80" viewBox="0 0 90 80" fill="none" xmlns="http://www.w3.org/2000/svg">
<g clip-path="url(#clip0_345_964)">
<path d="M44.9998 32.2541C49.2211 32.2541 52.6637 35.6967 52.6637 40C52.6637 44.0984 49.2211 47.582 44.9998 47.582C40.7785 47.582 37.3358 44.0984 37.3358 40C37.3358 35.6967 40.7785 32.2541 44.9998 32.2541ZM26.0244 72.7869C28.6063 74.3443 34.2621 71.9672 40.7785 65.8197C38.6473 63.4016 36.5571 60.7787 34.5899 58.0328C31.2876 57.7144 28.0043 57.2219 24.7539 56.5574C22.6637 65.3279 23.4424 71.3525 26.0244 72.7869ZM28.9342 49.2623L27.7457 47.1721C27.2948 48.3607 26.844 49.5492 26.5571 50.6967C27.6637 50.9426 28.8932 51.1475 30.1637 51.3525L28.9342 49.2623ZM55.7375 46.1475L59.0571 40L55.7375 33.8525C54.508 31.6803 53.1965 29.7541 52.008 27.8279C49.7948 27.7049 47.4588 27.7049 44.9998 27.7049C42.5407 27.7049 40.2047 27.7049 37.9916 27.8279C36.803 29.7541 35.4916 31.6803 34.2621 33.8525L30.9424 40L34.2621 46.1475C35.4916 48.3197 36.803 50.2459 37.9916 52.1721C40.2047 52.2951 42.5407 52.2951 44.9998 52.2951C47.4588 52.2951 49.7948 52.2951 52.008 52.1721C53.1965 50.2459 54.508 48.3197 55.7375 46.1475ZM44.9998 18.6066C44.2211 19.5082 43.4014 20.4508 42.5817 21.5574H47.4178C46.5981 20.4508 45.7785 19.5082 44.9998 18.6066ZM44.9998 61.3934C45.7785 60.4918 46.5981 59.5492 47.4178 58.4426H42.5817C43.4014 59.5492 44.2211 60.4918 44.9998 61.3934ZM63.9342 7.21312C61.3932 5.65574 55.7375 8.03279 49.2211 14.1803C51.3522 16.5984 53.4424 19.2213 55.4096 21.9672C58.7703 22.2951 62.0899 22.7869 65.2457 23.4426C67.3358 14.6721 66.5571 8.64755 63.9342 7.21312ZM61.0653 30.7377L62.2539 32.8279C62.7047 31.6394 63.1555 30.4508 63.4424 29.3033C62.3358 29.0574 61.1063 28.8525 59.8358 28.6475L61.0653 30.7377ZM67.008 1.84427C73.0326 5.28689 73.6883 14.3443 71.1473 24.918C81.5571 27.9918 89.0571 33.0738 89.0571 40C89.0571 46.9262 81.5571 52.0082 71.1473 55.082C73.6883 65.6557 73.0326 74.7131 67.008 78.1557C61.0244 81.5984 52.8686 77.6639 44.9998 70.1639C37.1309 77.6639 28.9752 81.5984 22.9506 78.1557C16.967 74.7131 16.3112 65.6557 18.8522 55.082C8.44238 52.0082 0.942383 46.9262 0.942383 40C0.942383 33.0738 8.44238 27.9918 18.8522 24.918C16.3112 14.3443 16.967 5.28689 22.9506 1.84427C28.9752 -1.59835 37.1309 2.33607 44.9998 9.83607C52.8686 2.33607 61.0244 -1.59835 67.008 1.84427ZM65.8194 40C67.2129 43.0738 68.4424 46.1475 69.467 49.2623C78.0735 46.6803 82.9096 42.9918 82.9096 40C82.9096 37.0082 78.0735 33.3197 69.467 30.7377C68.4424 33.8525 67.2129 36.9262 65.8194 40ZM24.1801 40C22.7866 36.9262 21.5571 33.8525 20.5325 30.7377C11.926 33.3197 7.08992 37.0082 7.08992 40C7.08992 42.9918 11.926 46.6803 20.5325 49.2623C21.5571 46.1475 22.7866 43.0738 24.1801 40ZM61.0653 49.2623L59.8358 51.3525C61.1063 51.1475 62.3358 50.9426 63.4424 50.6967C63.1555 49.5492 62.7047 48.3607 62.2539 47.1721L61.0653 49.2623ZM49.2211 65.8197C55.7375 71.9672 61.3932 74.3443 63.9342 72.7869C66.5571 71.3525 67.3358 65.3279 65.2457 56.5574C62.0899 57.2131 58.7703 57.7049 55.4096 58.0328C53.4424 60.7787 51.3522 63.4016 49.2211 65.8197ZM28.9342 30.7377L30.1637 28.6475C28.8932 28.8525 27.6637 29.0574 26.5571 29.3033C26.844 30.4508 27.2948 31.6394 27.7457 32.8279L28.9342 30.7377ZM40.7785 14.1803C34.2621 8.03279 28.6063 5.65574 26.0244 7.21312C23.4424 8.64755 22.6637 14.6721 24.7539 23.4426C28.0043 22.7781 31.2876 22.2856 34.5899 21.9672C36.5571 19.2213 38.6473 16.5984 40.7785 14.1803Z" fill="#7C1BD0"/>
</g>
<defs>
<clipPath id="clip0_345_964">
<rect width="89.1803" height="80" fill="white" transform="translate(0.409668)"/>
</clipPath>
</defs>
</svg>
