<svg width="36" height="80" viewBox="0 0 36 80" fill="none" xmlns="http://www.w3.org/2000/svg">
<g clip-path="url(#clip0_345_985)">
<path d="M35.0227 29.5396C34.6192 27.4384 33.5566 25.5203 31.9893 24.0639C30.4219 22.6074 28.4312 21.6882 26.3061 21.4396L25.4894 21.3396C24.1531 21.1717 22.9239 20.5221 22.0323 19.5127C21.1406 18.5032 20.6478 17.2032 20.6461 15.8563V13.003C22.0833 12.4062 23.2706 11.3318 24.0076 9.9612C24.7445 8.59057 24.986 7.00764 24.6913 5.47962C24.3965 3.95159 23.5836 2.57205 22.3897 1.57386C21.1959 0.575665 19.6941 0.0199537 18.1381 0.000527138C16.582 -0.0188995 15.0669 0.499148 13.8485 1.46723C12.63 2.4353 11.7829 3.79412 11.4501 5.31431C11.1173 6.8345 11.3192 8.42296 12.0217 9.81157C12.7242 11.2002 13.8843 12.3039 15.3062 12.9364V15.8497C15.3073 18.498 16.2746 21.0549 18.0267 23.0408C19.7788 25.0267 22.1952 26.3051 24.8228 26.6363L25.6394 26.7429C28.1861 27.0629 29.4527 28.9429 29.7927 30.5929C30.1261 32.2429 29.6927 34.4695 27.4661 35.7595C26.3882 36.3822 25.1887 36.7653 23.9494 36.8829L11.6829 38.0362C9.67393 38.225 7.72954 38.8458 5.98291 39.8562C4.11852 40.91 2.63877 42.5309 1.75877 44.4833C0.87876 46.4357 0.644352 48.618 1.08962 50.7128C1.49314 52.814 2.55567 54.732 4.12304 56.1885C5.69041 57.645 7.68108 58.5642 9.80622 58.8127L10.6229 58.9194C11.9586 59.0872 13.1874 59.7363 14.0789 60.7451C14.9705 61.7539 15.4637 63.053 15.4662 64.3993V66.9893C14.0286 67.5898 12.8422 68.6679 12.1074 70.0417C11.3725 71.4155 11.1343 73.0008 11.4329 74.5299C11.7314 76.059 12.5485 77.4382 13.7461 78.4347C14.9438 79.4312 16.4486 79.9839 18.0065 79.9995C19.5644 80.015 21.0799 79.4925 22.2972 78.5201C23.5145 77.5478 24.359 76.1851 24.688 74.6623C25.0171 73.1395 24.8106 71.5497 24.1033 70.1615C23.3961 68.7733 22.2315 67.6717 20.8061 67.0426V64.3993C20.8049 61.7505 19.8371 59.1932 18.0843 57.2072C16.3316 55.2212 13.9143 53.9431 11.2862 53.6127L10.4729 53.5061C7.92623 53.1861 6.65624 51.3061 6.31958 49.6561C5.98291 48.0061 6.41958 45.7795 8.64289 44.4895C9.72283 43.8659 10.9246 43.4827 12.1662 43.3661L24.4328 42.2162C26.4417 42.0273 28.3861 41.4065 30.1327 40.3962C31.9972 39.3417 33.4766 37.72 34.3561 35.767C35.2355 33.8139 35.469 31.6312 35.0227 29.5362V29.5396ZM26.1794 45.2328C25.6976 45.3172 25.2128 45.3839 24.7261 45.4328L19.5828 45.9228L26.0161 52.9861C27.9605 55.1183 29.0376 57.9003 29.0361 60.786H34.3894C34.3914 56.568 32.816 52.5018 29.9727 49.3861L26.1794 45.2328ZM9.50289 34.8662C10.1042 34.7439 10.7118 34.6549 11.3229 34.5995L16.0795 34.1462L9.61955 27.0663C7.67637 24.9335 6.60044 22.1515 6.60291 19.2663H1.26628C1.26628 23.4896 2.83294 27.5429 5.67958 30.6662L9.50289 34.8662Z" fill="#7C1BD0"/>
</g>
<defs>
<clipPath id="clip0_345_985">
<rect width="35.0877" height="80" fill="white" transform="translate(0.456055)"/>
</clipPath>
</defs>
</svg>
