<svg width="80" height="80" viewBox="0 0 80 80" fill="none" xmlns="http://www.w3.org/2000/svg">
<g clip-path="url(#clip0_345_979)">
<path d="M61.25 0H18.75C8.39466 0 0 8.39466 0 18.75V61.25C0 71.6053 8.39466 80 18.75 80H61.25C71.6053 80 80 71.6053 80 61.25V18.75C80 8.39466 71.6053 0 61.25 0Z" fill="#7C1BD0"/>
<path d="M52.056 51.7497C54.3625 51.511 56.1122 49.5225 56.0325 47.1366C55.9532 44.7506 53.9647 42.8419 51.5788 42.8419H51.4197C48.9541 42.9213 47.0453 44.9891 47.1247 47.4547C47.2044 48.6478 47.6816 49.6816 48.3972 50.3975C45.6932 55.7263 41.5575 59.6235 35.3538 62.8844C31.1385 65.1113 26.7641 65.9066 22.3897 65.35C18.8107 64.8728 16.0272 63.2819 14.2772 60.6575C11.7322 56.7603 11.4938 52.545 13.641 48.3297C15.1522 45.3072 17.5382 43.0803 19.0494 41.9669C18.7313 40.9331 18.2541 39.1831 18.0153 37.9106C6.48315 46.2619 7.67596 57.5556 11.1753 62.8844C13.8003 66.861 19.1288 69.3266 25.0144 69.3266C26.605 69.3266 28.1957 69.1675 29.7863 68.7697C39.9669 66.7816 47.6816 60.7369 52.056 51.7497Z" fill="#1A1A1A"/>
<path d="M66.0536 41.8873C60.0092 34.8085 51.1014 30.9116 40.9211 30.9116H39.6486C38.9326 29.4798 37.4214 28.5254 35.7514 28.5254H35.5923C33.1267 28.6051 31.2179 30.6729 31.2973 33.1385C31.377 35.5245 33.3651 37.4332 35.7514 37.4332H35.9104C37.6601 37.3538 39.1714 36.2404 39.8076 34.7291H41.2392C47.2836 34.7291 53.0101 36.4788 58.1798 39.8988C62.1564 42.5235 65.0198 45.9435 66.6104 50.0791C67.9626 53.4195 67.8829 56.6804 66.4514 59.4641C64.2245 63.6795 60.4864 65.986 55.5551 65.986C52.3739 65.986 49.3517 65.0316 47.7607 64.3157C46.8861 65.111 45.2954 66.3835 44.182 67.1788C47.6017 68.7695 51.1014 69.6445 54.4417 69.6445C62.077 69.6445 67.7239 65.4291 69.8714 61.2138C72.1779 56.601 72.0189 48.6476 66.0536 41.8873Z" fill="#1A1A1A"/>
<path d="M25.6508 53.1019C25.7305 55.4878 27.7186 57.3966 30.1048 57.3966H30.2639C32.7292 57.3169 34.6383 55.2491 34.5586 52.7834C34.4792 50.3975 32.4908 48.4888 30.1048 48.4888H29.9455C29.7867 48.4888 29.548 48.4888 29.3892 48.5684C26.128 43.16 24.7761 37.2744 25.2533 30.9119C25.5714 26.14 27.162 22.0041 29.9458 18.5838C32.252 15.6413 36.7061 14.2097 39.7283 14.13C48.1589 13.9709 51.738 24.4694 51.9764 28.685C53.0105 28.9234 54.7602 29.48 55.9533 29.8778C54.9989 16.9938 47.0455 10.3125 39.4102 10.3125C32.252 10.3125 25.6508 15.4822 23.0261 23.1175C19.3677 33.2978 21.7536 43.0803 26.2073 50.7953C25.8098 51.3519 25.5711 52.2269 25.6508 53.1019Z" fill="#1A1A1A"/>
</g>
<defs>
<clipPath id="clip0_345_979">
<rect width="80" height="80" fill="white"/>
</clipPath>
</defs>
</svg>
