<svg width="80" height="80" viewBox="0 0 80 80" fill="none" xmlns="http://www.w3.org/2000/svg">
<g clip-path="url(#clip0_349_1212)">
<path d="M17.0002 50.5C17.0002 52.7101 16.1222 54.8298 14.5594 56.3926C12.9966 57.9554 10.877 58.8333 8.66683 58.8333C6.45669 58.8333 4.33708 57.9554 2.77427 56.3926C1.21147 54.8298 0.333496 52.7101 0.333496 50.5C0.333496 48.2899 1.21147 46.1702 2.77427 44.6074C4.33708 43.0446 6.45669 42.1667 8.66683 42.1667H17.0002V50.5ZM21.1668 50.5C21.1668 48.2899 22.0448 46.1702 23.6076 44.6074C25.1704 43.0446 27.29 42.1667 29.5002 42.1667C31.7103 42.1667 33.8299 43.0446 35.3927 44.6074C36.9555 46.1702 37.8335 48.2899 37.8335 50.5V71.3333C37.8335 73.5435 36.9555 75.6631 35.3927 77.2259C33.8299 78.7887 31.7103 79.6667 29.5002 79.6667C27.29 79.6667 25.1704 78.7887 23.6076 77.2259C22.0448 75.6631 21.1668 73.5435 21.1668 71.3333V50.5ZM29.5002 17.1667C27.29 17.1667 25.1704 16.2887 23.6076 14.7259C22.0448 13.1631 21.1668 11.0435 21.1668 8.83333C21.1668 6.6232 22.0448 4.50358 23.6076 2.94078C25.1704 1.37797 27.29 0.5 29.5002 0.5C31.7103 0.5 33.8299 1.37797 35.3927 2.94078C36.9555 4.50358 37.8335 6.6232 37.8335 8.83333V17.1667H29.5002ZM29.5002 21.3333C31.7103 21.3333 33.8299 22.2113 35.3927 23.7741C36.9555 25.3369 37.8335 27.4565 37.8335 29.6667C37.8335 31.8768 36.9555 33.9964 35.3927 35.5592C33.8299 37.122 31.7103 38 29.5002 38H8.66683C6.45669 38 4.33708 37.122 2.77427 35.5592C1.21147 33.9964 0.333496 31.8768 0.333496 29.6667C0.333496 27.4565 1.21147 25.3369 2.77427 23.7741C4.33708 22.2113 6.45669 21.3333 8.66683 21.3333H29.5002ZM62.8335 29.6667C62.8335 27.4565 63.7115 25.3369 65.2743 23.7741C66.8371 22.2113 68.9567 21.3333 71.1668 21.3333C73.377 21.3333 75.4966 22.2113 77.0594 23.7741C78.6222 25.3369 79.5002 27.4565 79.5002 29.6667C79.5002 31.8768 78.6222 33.9964 77.0594 35.5592C75.4966 37.122 73.377 38 71.1668 38H62.8335V29.6667ZM58.6668 29.6667C58.6668 31.8768 57.7889 33.9964 56.226 35.5592C54.6632 37.122 52.5436 38 50.3335 38C48.1234 38 46.0037 37.122 44.4409 35.5592C42.8781 33.9964 42.0002 31.8768 42.0002 29.6667V8.83333C42.0002 6.6232 42.8781 4.50358 44.4409 2.94078C46.0037 1.37797 48.1234 0.5 50.3335 0.5C52.5436 0.5 54.6632 1.37797 56.226 2.94078C57.7889 4.50358 58.6668 6.6232 58.6668 8.83333V29.6667ZM50.3335 63C52.5436 63 54.6632 63.878 56.226 65.4408C57.7889 67.0036 58.6668 69.1232 58.6668 71.3333C58.6668 73.5435 57.7889 75.6631 56.226 77.2259C54.6632 78.7887 52.5436 79.6667 50.3335 79.6667C48.1234 79.6667 46.0037 78.7887 44.4409 77.2259C42.8781 75.6631 42.0002 73.5435 42.0002 71.3333V63H50.3335ZM50.3335 58.8333C48.1234 58.8333 46.0037 57.9554 44.4409 56.3926C42.8781 54.8298 42.0002 52.7101 42.0002 50.5C42.0002 48.2899 42.8781 46.1702 44.4409 44.6074C46.0037 43.0446 48.1234 42.1667 50.3335 42.1667H71.1668C73.377 42.1667 75.4966 43.0446 77.0594 44.6074C78.6222 46.1702 79.5002 48.2899 79.5002 50.5C79.5002 52.7101 78.6222 54.8298 77.0594 56.3926C75.4966 57.9554 73.377 58.8333 71.1668 58.8333H50.3335Z" fill="#7C1BD0"/>
</g>
<defs>
<clipPath id="clip0_349_1212">
<rect width="80" height="80" fill="white"/>
</clipPath>
</defs>
</svg>
