<svg width="134" height="80" viewBox="0 0 134 80" fill="none" xmlns="http://www.w3.org/2000/svg">
<path d="M66.9999 0.526367C49.4341 0.526367 38.5131 9.27637 34.1052 26.8422C40.6841 18.0922 48.3815 14.8027 57.1315 16.9737C62.1315 18.2237 65.7499 21.8422 69.6973 25.8553C76.1447 32.4343 83.4473 40 99.8947 40C117.46 40 128.382 31.25 132.789 13.6843C126.21 22.4343 118.513 25.7237 109.763 23.5527C104.763 22.3027 101.21 18.6843 97.1973 14.6711C90.7499 8.09215 83.4473 0.526367 66.9999 0.526367ZM34.1052 40C16.5394 40 5.61834 48.75 1.21045 66.3158C7.7894 57.5658 15.4868 54.2764 24.2368 56.4474C29.2368 57.6974 32.7894 61.3158 36.8026 65.329C43.2499 71.9079 50.5526 79.4737 66.9999 79.4737C84.5657 79.4737 95.4868 70.7237 99.8947 53.1579C93.3157 61.9079 85.6183 65.1974 76.8683 63.0264C71.8683 61.7764 68.3157 58.1579 64.3026 54.1448C57.8552 47.5658 50.5526 40 34.1052 40Z" fill="#7C1BD0"/>
</svg>
