<svg width="21" height="20" viewBox="0 0 21 20" fill="none" xmlns="http://www.w3.org/2000/svg">
<path d="M10.5001 18.3334C15.1025 18.3334 18.8334 14.6025 18.8334 10.0001C18.8334 5.39771 15.1025 1.66675 10.5001 1.66675C5.89771 1.66675 2.16675 5.39771 2.16675 10.0001C2.16675 14.6025 5.89771 18.3334 10.5001 18.3334Z" stroke="white" stroke-width="1.4" stroke-linecap="round" stroke-linejoin="round"/>
<path d="M8.07495 7.49999C8.27087 6.94304 8.65758 6.47341 9.16658 6.17426C9.67558 5.87512 10.274 5.76577 10.8559 5.86558C11.4378 5.96539 11.9656 6.26792 12.3458 6.71959C12.7261 7.17126 12.9342 7.74292 12.9333 8.33332C12.9333 9.99999 10.4333 10.8333 10.4333 10.8333" stroke="white" stroke-width="1.4" stroke-linecap="round" stroke-linejoin="round"/>
<path d="M10.5 14.1667H10.5083" stroke="white" stroke-width="1.4" stroke-linecap="round" stroke-linejoin="round"/>
</svg>
