<svg width="344" height="75" viewBox="0 0 344 75" fill="none" xmlns="http://www.w3.org/2000/svg">
<path d="M328.691 73V46.3C328.691 44.5667 328.624 42.8333 328.491 41.1C328.357 39.3 327.957 37.7 327.291 36.3C326.691 34.9 325.757 33.7667 324.491 32.9C323.224 32.0333 321.457 31.6 319.191 31.6C316.857 31.6 314.991 32.1667 313.591 33.3C312.257 34.4333 311.191 35.8333 310.391 37.5C309.657 39.1 309.157 40.8333 308.891 42.7C308.691 44.5667 308.591 46.2 308.591 47.6V73H293.991V32.5C293.991 30.9 293.957 29.3 293.891 27.7C293.824 26.0333 293.724 24.3333 293.591 22.6H308.091L308.291 30.3C310.557 27.3667 312.957 25.2333 315.491 23.9C318.024 22.5 321.157 21.8 324.891 21.8C331.091 21.8 335.691 23.4 338.691 26.6C341.757 29.7333 343.291 34.3333 343.291 40.4V73H328.691Z" fill="black"/>
<path d="M287.184 47.6C287.184 51.8 286.517 55.5667 285.184 58.9C283.917 62.1667 282.084 64.9333 279.684 67.2C277.284 69.4667 274.384 71.2 270.984 72.4C267.584 73.6 263.817 74.2 259.684 74.2C255.484 74.2 251.684 73.6333 248.284 72.5C244.95 71.3 242.084 69.5667 239.684 67.3C237.35 65.0333 235.55 62.2667 234.284 59C233.017 55.6667 232.384 51.8667 232.384 47.6C232.384 43.4 233.05 39.6667 234.384 36.4C235.717 33.1333 237.617 30.3667 240.084 28.1C242.55 25.8333 245.45 24.1333 248.784 23C252.184 21.8 255.95 21.2 260.084 21.2C264.217 21.2 267.95 21.8 271.284 23C274.617 24.1333 277.45 25.8333 279.784 28.1C282.184 30.3667 284.017 33.1333 285.284 36.4C286.55 39.6667 287.184 43.4 287.184 47.6ZM271.984 47.7C271.984 45.7 271.784 43.6667 271.384 41.6C271.05 39.4667 270.417 37.5667 269.484 35.9C268.55 34.1667 267.284 32.7667 265.684 31.7C264.084 30.5667 262.084 30 259.684 30C257.217 30 255.184 30.5667 253.584 31.7C252.05 32.7667 250.817 34.1667 249.884 35.9C249.017 37.5667 248.417 39.4667 248.084 41.6C247.75 43.6667 247.584 45.7 247.584 47.7C247.584 49.7 247.75 51.7667 248.084 53.9C248.417 55.9667 249.017 57.8667 249.884 59.6C250.817 61.3333 252.05 62.7667 253.584 63.9C255.184 64.9667 257.217 65.5 259.684 65.5C262.084 65.5 264.084 64.9667 265.684 63.9C267.284 62.7667 268.55 61.3333 269.484 59.6C270.417 57.8667 271.05 55.9667 271.384 53.9C271.784 51.7667 271.984 49.7 271.984 47.7Z" fill="black"/>
<path d="M228.977 47.6C228.977 51.8 228.31 55.5667 226.977 58.9C225.71 62.1667 223.877 64.9333 221.477 67.2C219.077 69.4667 216.177 71.2 212.777 72.4C209.377 73.6 205.61 74.2 201.477 74.2C197.277 74.2 193.477 73.6333 190.077 72.5C186.743 71.3 183.877 69.5667 181.477 67.3C179.143 65.0333 177.343 62.2667 176.077 59C174.81 55.6667 174.177 51.8667 174.177 47.6C174.177 43.4 174.843 39.6667 176.177 36.4C177.51 33.1333 179.41 30.3667 181.877 28.1C184.343 25.8333 187.243 24.1333 190.577 23C193.977 21.8 197.743 21.2 201.877 21.2C206.01 21.2 209.743 21.8 213.077 23C216.41 24.1333 219.243 25.8333 221.577 28.1C223.977 30.3667 225.81 33.1333 227.077 36.4C228.343 39.6667 228.977 43.4 228.977 47.6ZM213.777 47.7C213.777 45.7 213.577 43.6667 213.177 41.6C212.843 39.4667 212.21 37.5667 211.277 35.9C210.343 34.1667 209.077 32.7667 207.477 31.7C205.877 30.5667 203.877 30 201.477 30C199.01 30 196.977 30.5667 195.377 31.7C193.843 32.7667 192.61 34.1667 191.677 35.9C190.81 37.5667 190.21 39.4667 189.877 41.6C189.543 43.6667 189.377 45.7 189.377 47.7C189.377 49.7 189.543 51.7667 189.877 53.9C190.21 55.9667 190.81 57.8667 191.677 59.6C192.61 61.3333 193.843 62.7667 195.377 63.9C196.977 64.9667 199.01 65.5 201.477 65.5C203.877 65.5 205.877 64.9667 207.477 63.9C209.077 62.7667 210.343 61.3333 211.277 59.6C212.21 57.8667 212.843 55.9667 213.177 53.9C213.577 51.7667 213.777 49.7 213.777 47.7Z" fill="black"/>
<path d="M160.705 32.1V55.1C160.705 56.5667 160.738 57.8667 160.805 59C160.938 60.0667 161.238 60.9667 161.705 61.7C162.171 62.3667 162.871 62.9 163.805 63.3C164.738 63.6333 166.071 63.8 167.805 63.8C168.605 63.8 169.371 63.7667 170.105 63.7C170.838 63.5667 171.638 63.4667 172.505 63.4V72.9C170.771 73.1667 169.038 73.3667 167.305 73.5C165.571 73.6333 163.838 73.7 162.105 73.7C159.571 73.7 157.338 73.5 155.405 73.1C153.471 72.7667 151.838 72.1 150.505 71.1C149.171 70.1 148.171 68.7333 147.505 67C146.838 65.2 146.505 62.9333 146.505 60.2V32.1H136.805V22.5H146.505V14.1L160.705 8.29999V22.5H172.605V32.1H160.705Z" fill="black"/>
<path d="M118.096 73V0.700012H132.696V73H118.096Z" fill="black"/>
<path d="M74.8883 50.6C74.8883 52.5333 75.0883 54.4 75.4883 56.2C75.8883 57.9333 76.555 59.5 77.4883 60.9C78.4216 62.2333 79.6216 63.3333 81.0883 64.2C82.555 65 84.355 65.4 86.4883 65.4C92.4216 65.4 95.7883 62.4667 96.5883 56.6H110.788C110.322 59.8667 109.322 62.6333 107.788 64.9C106.322 67.1 104.488 68.9 102.288 70.3C100.088 71.6333 97.5883 72.6 94.7883 73.2C92.055 73.8 89.2216 74.1 86.2883 74.1C78.0883 74.1 71.755 71.9 67.2883 67.5C62.8883 63.1 60.6883 56.8 60.6883 48.6C60.6883 40.2 62.855 33.5333 67.1883 28.6C71.5883 23.6667 78.1216 21.2 86.7883 21.2C89.255 21.2 91.6216 21.4667 93.8883 22C96.155 22.4667 98.255 23.2667 100.188 24.4C102.122 25.4667 103.822 26.8667 105.288 28.6C106.822 30.2667 108.088 32.2667 109.088 34.6C110.155 37.0667 110.788 39.6 110.988 42.2C111.188 44.8 111.288 47.6 111.288 50.6H74.8883ZM97.1883 42.2C97.1883 38.4 96.3216 35.4 94.5883 33.2C92.855 30.9333 90.2216 29.8 86.6883 29.8C83.0883 29.8 80.255 30.9667 78.1883 33.3C76.1883 35.6333 75.1883 38.6 75.1883 42.2H97.1883Z" fill="black"/>
<path d="M0 73V60.2L38.3 12H2.4V0.700012H57.6V12.5L17.6 61.7H59V73H0Z" fill="black"/>
</svg>
