<svg width="501" height="500" viewBox="0 0 501 500" fill="none" xmlns="http://www.w3.org/2000/svg">
<path d="M250.5 250C250.399 214.255 264.441 179.921 289.563 154.492L380.578 63.4765C384.219 59.726 388.576 56.7445 393.39 54.7084C398.204 52.6724 403.378 51.6233 408.606 51.6233C413.833 51.6233 419.007 52.6724 423.821 54.7084C428.635 56.7445 432.992 59.726 436.633 63.4765C440.383 67.1175 443.365 71.4742 445.401 76.2884C447.437 81.1027 448.486 86.2767 448.486 91.5038C448.486 96.7309 447.437 101.905 445.401 106.719C443.365 111.533 440.383 115.89 436.633 119.531L346.008 210.937C320.591 236.077 286.249 250.123 250.5 250Z" stroke="white" stroke-opacity="0.3" stroke-width="31.25" stroke-miterlimit="10"/>
<path d="M306.359 44.5312H120.031C100.244 44.5313 81.2664 52.3919 67.2745 66.3838C53.2825 80.3758 45.4219 99.353 45.4219 119.141V305.469C45.4219 325.256 53.2825 344.234 67.2745 358.226C81.2664 372.218 100.244 380.078 120.031 380.078H157.336V435.938L270.031 380.078H381.945C401.733 380.078 420.71 372.218 434.702 358.226C448.694 344.234 456.555 325.256 456.555 305.469V193.555" stroke="white" stroke-opacity="0.3" stroke-width="31.25" stroke-miterlimit="10"/>
</svg>
